<svg xmlns="http://www.w3.org/2000/svg" width="865.76" height="682.89" viewBox="0 0 865.76 682.89"><path d="M245.82,567.07s-223,19.2-219.92-157.32c0,0-12.37-138.32,89.19-220.8A205.09,205.09,0,0,1,201.84,148c25.39-5.4,68.75-17.23,113.45-41.24,0,0,193.12-139,400.81-10.93,0,0,156.15,101.47,110.87,271.69,0,0-29,180.24-306.49,170.55C520.48,538.07,339.26,562,245.82,567.07Z" fill="#0071f2"/><path d="M245.82,567.07s-223,19.2-219.92-157.32c0,0-12.37-138.32,89.19-220.8A205.09,205.09,0,0,1,201.84,148c25.39-5.4,68.75-17.23,113.45-41.24,0,0,193.12-139,400.81-10.93,0,0,156.15,101.47,110.87,271.69,0,0-29,180.24-306.49,170.55C520.48,538.07,339.26,562,245.82,567.07Z" fill="#fff" opacity="0.7" style="isolation:isolate"/><rect x="102.21" y="27.03" width="268.13" height="543.31" fill="#ccc"/><rect x="131.31" y="64.95" width="208.74" height="57.62" fill="#b3b3b3"/><rect x="142.49" y="80.83" width="7.64" height="31.75" fill="#fff"/><rect x="172.47" y="80.83" width="7.64" height="31.75" fill="#fff"/><rect x="157.77" y="87.88" width="7.64" height="24.7" fill="#fff"/><rect x="186.59" y="87.88" width="7.64" height="24.7" fill="#fff"/><rect x="201.29" y="80.83" width="7.64" height="31.75" fill="#fff"/><rect x="231.27" y="80.83" width="7.64" height="31.75" fill="#fff"/><rect x="216.57" y="87.88" width="7.64" height="24.7" fill="#fff"/><rect x="245.38" y="87.88" width="7.64" height="24.7" fill="#fff"/><rect x="259.5" y="80.83" width="7.64" height="31.75" fill="#fff"/><rect x="289.48" y="80.83" width="7.64" height="31.75" fill="#fff"/><rect x="274.78" y="87.88" width="7.64" height="24.7" fill="#fff"/><rect x="303.6" y="87.88" width="7.64" height="24.7" fill="#fff"/><rect x="318.3" y="87.88" width="7.64" height="24.7" fill="#fff"/><rect x="131.9" y="146.09" width="208.74" height="57.62" fill="#b3b3b3"/><rect x="143.07" y="161.97" width="7.64" height="31.75" fill="#fff"/><rect x="173.06" y="161.97" width="7.64" height="31.75" fill="#fff"/><rect x="158.36" y="169.03" width="7.64" height="24.7" fill="#fff"/><rect x="187.17" y="169.03" width="7.64" height="24.7" fill="#fff"/><rect x="201.87" y="161.97" width="7.64" height="31.75" fill="#fff"/><rect x="231.86" y="161.97" width="7.64" height="31.75" fill="#fff"/><rect x="217.16" y="169.03" width="7.64" height="24.7" fill="#fff"/><rect x="245.97" y="169.03" width="7.64" height="24.7" fill="#fff"/><rect x="260.08" y="161.97" width="7.64" height="31.75" fill="#fff"/><rect x="290.07" y="161.97" width="7.64" height="31.75" fill="#fff"/><rect x="275.37" y="169.03" width="7.64" height="24.7" fill="#fff"/><rect x="304.18" y="169.03" width="7.64" height="24.7" fill="#fff"/><rect x="318.88" y="169.03" width="7.64" height="24.7" fill="#fff"/><rect x="131.9" y="225.47" width="208.74" height="57.62" fill="#b3b3b3"/><rect x="143.07" y="241.35" width="7.64" height="31.75" fill="#fff"/><rect x="173.06" y="241.35" width="7.64" height="31.75" fill="#fff"/><rect x="158.36" y="248.41" width="7.64" height="24.7" fill="#fff"/><rect x="187.17" y="248.41" width="7.64" height="24.7" fill="#fff"/><rect x="201.87" y="241.35" width="7.64" height="31.75" fill="#fff"/><rect x="231.86" y="241.35" width="7.64" height="31.75" fill="#fff"/><rect x="217.16" y="248.41" width="7.64" height="24.7" fill="#fff"/><rect x="245.97" y="248.41" width="7.64" height="24.7" fill="#fff"/><rect x="260.08" y="241.35" width="7.64" height="31.75" fill="#fff"/><rect x="290.07" y="241.35" width="7.64" height="31.75" fill="#fff"/><rect x="275.37" y="248.41" width="7.64" height="24.7" fill="#fff"/><rect x="304.18" y="248.41" width="7.64" height="24.7" fill="#fff"/><rect x="318.88" y="248.41" width="7.64" height="24.7" fill="#fff"/><rect x="131.9" y="306.62" width="208.74" height="57.62" fill="#b3b3b3"/><rect x="143.07" y="322.49" width="7.64" height="31.75" fill="#fff"/><rect x="173.06" y="322.49" width="7.64" height="31.75" fill="#fff"/><rect x="158.36" y="329.55" width="7.64" height="24.7" fill="#fff"/><rect x="187.17" y="329.55" width="7.64" height="24.7" fill="#fff"/><rect x="201.87" y="322.49" width="7.64" height="31.75" fill="#fff"/><rect x="231.86" y="322.49" width="7.64" height="31.75" fill="#fff"/><rect x="217.16" y="329.55" width="7.64" height="24.7" fill="#fff"/><rect x="245.97" y="329.55" width="7.64" height="24.7" fill="#fff"/><rect x="260.08" y="322.49" width="7.64" height="31.75" fill="#fff"/><rect x="290.07" y="322.49" width="7.64" height="31.75" fill="#fff"/><rect x="275.37" y="329.55" width="7.64" height="24.7" fill="#fff"/><rect x="304.18" y="329.55" width="7.64" height="24.7" fill="#fff"/><rect x="318.88" y="329.55" width="7.64" height="24.7" fill="#fff"/><rect x="131.9" y="387.76" width="208.74" height="57.62" fill="#b3b3b3"/><rect x="143.07" y="403.64" width="7.64" height="31.75" fill="#fff"/><rect x="173.06" y="403.64" width="7.64" height="31.75" fill="#fff"/><rect x="158.36" y="410.69" width="7.64" height="24.7" fill="#fff"/><rect x="187.17" y="410.69" width="7.64" height="24.7" fill="#fff"/><rect x="201.87" y="403.64" width="7.64" height="31.75" fill="#fff"/><rect x="231.86" y="403.64" width="7.64" height="31.75" fill="#fff"/><rect x="217.16" y="410.69" width="7.64" height="24.7" fill="#fff"/><rect x="245.97" y="410.69" width="7.64" height="24.7" fill="#fff"/><rect x="260.08" y="403.64" width="7.64" height="31.75" fill="#fff"/><rect x="290.07" y="403.64" width="7.64" height="31.75" fill="#fff"/><rect x="275.37" y="410.69" width="7.64" height="24.7" fill="#fff"/><rect x="304.18" y="410.69" width="7.64" height="24.7" fill="#fff"/><rect x="318.88" y="410.69" width="7.64" height="24.7" fill="#fff"/><rect x="131.9" y="466.55" width="208.74" height="57.62" fill="#b3b3b3"/><rect x="143.07" y="482.43" width="7.64" height="31.75" fill="#fff"/><rect x="173.06" y="482.43" width="7.64" height="31.75" fill="#fff"/><rect x="158.36" y="489.48" width="7.64" height="24.7" fill="#fff"/><rect x="187.17" y="489.48" width="7.64" height="24.7" fill="#fff"/><rect x="201.87" y="482.43" width="7.64" height="31.75" fill="#fff"/><rect x="231.86" y="482.43" width="7.64" height="31.75" fill="#fff"/><rect x="217.16" y="489.48" width="7.64" height="24.7" fill="#fff"/><rect x="245.97" y="489.48" width="7.64" height="24.7" fill="#fff"/><rect x="260.08" y="482.43" width="7.64" height="31.75" fill="#fff"/><rect x="290.07" y="482.43" width="7.64" height="31.75" fill="#fff"/><rect x="275.37" y="489.48" width="7.64" height="24.7" fill="#fff"/><rect x="304.18" y="489.48" width="7.64" height="24.7" fill="#fff"/><rect x="318.88" y="489.48" width="7.64" height="24.7" fill="#fff"/><rect x="387.78" y="27.03" width="268.13" height="543.31" fill="#ccc"/><rect x="416.88" y="64.95" width="208.74" height="57.62" fill="#b3b3b3"/><rect x="428.05" y="80.83" width="7.64" height="31.75" fill="#fff"/><rect x="458.04" y="80.83" width="7.64" height="31.75" fill="#fff"/><rect x="443.34" y="87.88" width="7.64" height="24.7" fill="#fff"/><rect x="472.15" y="87.88" width="7.64" height="24.7" fill="#fff"/><rect x="486.85" y="80.83" width="7.64" height="31.75" fill="#fff"/><rect x="516.84" y="80.83" width="7.64" height="31.75" fill="#fff"/><rect x="502.14" y="87.88" width="7.64" height="24.7" fill="#fff"/><rect x="530.95" y="87.88" width="7.64" height="24.7" fill="#fff"/><rect x="545.06" y="80.83" width="7.64" height="31.75" fill="#fff"/><rect x="575.05" y="80.83" width="7.64" height="31.75" fill="#fff"/><rect x="560.35" y="87.88" width="7.64" height="24.7" fill="#fff"/><rect x="589.16" y="87.88" width="7.64" height="24.7" fill="#fff"/><rect x="603.86" y="87.88" width="7.64" height="24.7" fill="#fff"/><rect x="417.47" y="146.09" width="208.74" height="57.62" fill="#b3b3b3"/><rect x="428.64" y="161.97" width="7.64" height="31.75" fill="#fff"/><rect x="458.63" y="161.97" width="7.64" height="31.75" fill="#fff"/><rect x="443.93" y="169.03" width="7.64" height="24.7" fill="#fff"/><rect x="472.74" y="169.03" width="7.64" height="24.7" fill="#fff"/><rect x="487.44" y="161.97" width="7.64" height="31.75" fill="#fff"/><rect x="517.43" y="161.97" width="7.64" height="31.75" fill="#fff"/><rect x="502.73" y="169.03" width="7.64" height="24.7" fill="#fff"/><rect x="531.54" y="169.03" width="7.64" height="24.7" fill="#fff"/><rect x="545.65" y="161.97" width="7.64" height="31.75" fill="#fff"/><rect x="575.64" y="161.97" width="7.64" height="31.75" fill="#fff"/><rect x="560.94" y="169.03" width="7.64" height="24.7" fill="#fff"/><rect x="589.75" y="169.03" width="7.64" height="24.7" fill="#fff"/><rect x="604.45" y="169.03" width="7.64" height="24.7" fill="#fff"/><rect x="417.47" y="225.47" width="208.74" height="57.62" fill="#b3b3b3"/><rect x="428.64" y="241.35" width="7.64" height="31.75" fill="#fff"/><rect x="458.63" y="241.35" width="7.64" height="31.75" fill="#fff"/><rect x="443.93" y="248.41" width="7.64" height="24.7" fill="#fff"/><rect x="472.74" y="248.41" width="7.64" height="24.7" fill="#fff"/><rect x="487.44" y="241.35" width="7.64" height="31.75" fill="#fff"/><rect x="517.43" y="241.35" width="7.64" height="31.75" fill="#fff"/><rect x="502.73" y="248.41" width="7.64" height="24.7" fill="#fff"/><rect x="531.54" y="248.41" width="7.64" height="24.7" fill="#fff"/><rect x="545.65" y="241.35" width="7.64" height="31.75" fill="#fff"/><rect x="575.64" y="241.35" width="7.64" height="31.75" fill="#fff"/><rect x="560.94" y="248.41" width="7.64" height="24.7" fill="#fff"/><rect x="589.75" y="248.41" width="7.64" height="24.7" fill="#fff"/><rect x="604.45" y="248.41" width="7.64" height="24.7" fill="#fff"/><rect x="417.47" y="306.62" width="208.74" height="57.62" fill="#b3b3b3"/><rect x="428.64" y="322.49" width="7.64" height="31.75" fill="#fff"/><rect x="458.63" y="322.49" width="7.64" height="31.75" fill="#fff"/><rect x="443.93" y="329.55" width="7.64" height="24.7" fill="#fff"/><rect x="472.74" y="329.55" width="7.64" height="24.7" fill="#fff"/><rect x="487.44" y="322.49" width="7.64" height="31.75" fill="#fff"/><rect x="517.43" y="322.49" width="7.64" height="31.75" fill="#fff"/><rect x="502.73" y="329.55" width="7.64" height="24.7" fill="#fff"/><rect x="531.54" y="329.55" width="7.64" height="24.7" fill="#fff"/><rect x="545.65" y="322.49" width="7.64" height="31.75" fill="#fff"/><rect x="575.64" y="322.49" width="7.64" height="31.75" fill="#fff"/><rect x="560.94" y="329.55" width="7.64" height="24.7" fill="#fff"/><rect x="589.75" y="329.55" width="7.64" height="24.7" fill="#fff"/><rect x="604.45" y="329.55" width="7.64" height="24.7" fill="#fff"/><rect x="417.47" y="387.76" width="208.74" height="57.62" fill="#b3b3b3"/><rect x="428.64" y="403.64" width="7.64" height="31.75" fill="#fff"/><rect x="458.63" y="403.64" width="7.64" height="31.75" fill="#fff"/><rect x="443.93" y="410.69" width="7.64" height="24.7" fill="#fff"/><rect x="472.74" y="410.69" width="7.64" height="24.7" fill="#fff"/><rect x="487.44" y="403.64" width="7.64" height="31.75" fill="#fff"/><rect x="517.43" y="403.64" width="7.64" height="31.75" fill="#fff"/><rect x="502.73" y="410.69" width="7.64" height="24.7" fill="#fff"/><rect x="531.54" y="410.69" width="7.64" height="24.7" fill="#fff"/><rect x="545.65" y="403.64" width="7.64" height="31.75" fill="#fff"/><rect x="575.64" y="403.64" width="7.64" height="31.75" fill="#fff"/><rect x="560.94" y="410.69" width="7.64" height="24.7" fill="#fff"/><rect x="589.75" y="410.69" width="7.64" height="24.7" fill="#fff"/><rect x="604.45" y="410.69" width="7.64" height="24.7" fill="#fff"/><rect x="417.47" y="466.55" width="208.74" height="57.62" fill="#b3b3b3"/><rect x="428.64" y="482.43" width="7.64" height="31.75" fill="#fff"/><rect x="458.63" y="482.43" width="7.64" height="31.75" fill="#fff"/><rect x="443.93" y="489.48" width="7.64" height="24.7" fill="#fff"/><rect x="472.74" y="489.48" width="7.64" height="24.7" fill="#fff"/><rect x="487.44" y="482.43" width="7.64" height="31.75" fill="#fff"/><rect x="517.43" y="482.43" width="7.64" height="31.75" fill="#fff"/><rect x="502.73" y="489.48" width="7.64" height="24.7" fill="#fff"/><rect x="531.54" y="489.48" width="7.64" height="24.7" fill="#fff"/><rect x="545.65" y="482.43" width="7.64" height="31.75" fill="#fff"/><rect x="575.64" y="482.43" width="7.64" height="31.75" fill="#fff"/><rect x="560.94" y="489.48" width="7.64" height="24.7" fill="#fff"/><rect x="589.75" y="489.48" width="7.64" height="24.7" fill="#fff"/><rect x="604.45" y="489.48" width="7.64" height="24.7" fill="#fff"/><path d="M236.48,600.72v-11.4l-11.44-4a46.62,46.62,0,0,0-1.49-7.79l9.69-7.23L228.83,560l-12.22,3a47.59,47.59,0,0,0-5.66-6.61L215.54,545l-9-6.35-9.83,8.21a47.82,47.82,0,0,0-7.13-2.41L188,532.31l-11.47-1.08-3.23,12a46.38,46.38,0,0,0-7.59,1.38L157.85,534l-10.16,5.58,2.66,12.31a46.45,46.45,0,0,0-6.33,5.47l-11.62-5.56-6.76,9.24,9.26,9.65a46.36,46.36,0,0,0-2.67,7.44l-13.35,1.31-.59,10.88,12.59,4.78a46.34,46.34,0,0,0,1.51,7.95l-10.57,7.55,4.79,10,12-4.07a47.45,47.45,0,0,0,5.58,6.87l-4.68,12.49,9.41,6.46,8.8-9.27a46.74,46.74,0,0,0,7.88,2.91l1.54,12.83H178l3.7-11.33a47.09,47.09,0,0,0,8.61-1.47l7.39,9.86,9.41-4.7-2.07-12a47.9,47.9,0,0,0,6.6-5.55l10.76,4.63,6.46-9.34-8-8.5a47.19,47.19,0,0,0,2.88-7.88Zm-58.8,19.89a30,30,0,1,1,30-30A30,30,0,0,1,177.68,620.61Z" fill="#0071f2"/><path d="M704.64,65.6V58.11l-7.5-2.6a31.1,31.1,0,0,0-1-5.12l6.37-4.74-2.9-6.76-8,1.94a31.44,31.44,0,0,0-3.72-4.34l3-7.5L685,24.82l-6.46,5.39a30,30,0,0,0-4.68-1.58l-1-8L665.25,20l-2.12,7.88a31.8,31.8,0,0,0-5,.91l-5.14-7-6.67,3.66,1.75,8.09a30.29,30.29,0,0,0-4.16,3.59l-7.63-3.65-4.44,6.07,6.08,6.34a31.09,31.09,0,0,0-1.75,4.88l-8.77.86L627,58.78l8.27,3.14a31.05,31.05,0,0,0,1,5.22l-6.94,5,3.14,6.56L640.34,76A31.65,31.65,0,0,0,644,80.51l-3.08,8.19L647.1,93l5.79-6.09a30.79,30.79,0,0,0,5.17,1.92l1,8.42h7.15l2.43-7.44a30.88,30.88,0,0,0,5.65-1l4.86,6.47,6.18-3.09L684,84.29a31,31,0,0,0,4.34-3.65l7.07,3,4.24-6.13L694.37,72a30.47,30.47,0,0,0,1.89-5.18ZM666,78.66A19.7,19.7,0,1,1,685.72,59,19.69,19.69,0,0,1,666,78.66Z" fill="#0071f2"/><rect x="540.47" y="416.57" width="187.57" height="208.74" fill="#2f2e41"/><rect x="540.47" y="416.57" width="187.57" height="208.74" opacity="0.2"/><rect x="522.24" y="363.07" width="225.79" height="62.33" fill="#0071f2"/><rect x="549.29" y="386.88" width="139.36" height="14.7" fill="#fff" opacity="0.3"/><circle cx="718.34" cy="394.23" r="9.7" fill="#fff"/><rect x="522.24" y="444.4" width="225.79" height="62.33" fill="#0071f2"/><rect x="549.29" y="468.22" width="139.36" height="14.7" fill="#fff" opacity="0.3"/><circle cx="718.34" cy="475.57" r="9.7" fill="#fff"/><rect x="522.24" y="527.7" width="225.79" height="62.33" fill="#0071f2"/><rect x="549.29" y="551.52" width="139.36" height="14.7" fill="#fff" opacity="0.3"/><circle cx="718.34" cy="558.87" r="9.7" fill="#fff"/><rect x="522.24" y="610.02" width="225.79" height="62.33" fill="#0071f2"/><rect x="549.29" y="633.84" width="139.36" height="14.7" fill="#fff" opacity="0.3"/><circle cx="718.34" cy="641.19" r="9.7" fill="#fff"/><path d="M697,153.13s8.7,33.88-27.87,29.23a29.77,29.77,0,0,0-33.73-49c0-.34.65-8.51,29.31-8.51,1,0,21.2,1,27.25,13.12,0,0,3.64-8.75,9.7-5.18a8.27,8.27,0,0,1,3.9,6.35C706,144.33,705.82,153.87,697,153.13Z" fill="#2f2e41"/><path d="M665.79,181.46v16.09l-.23.15a18.34,18.34,0,0,1-9.8,3.7,43.06,43.06,0,0,1-8.13-.42V181.46Z" fill="#f9b499"/><path d="M647.63,181.46v10.59s7.06,2.53,18.16,0V181.46Z" fill="#f7a48b"/><path d="M702.12,338.87l-9.08,1-63.57-29.26H615.34l-21.19-36.33L621.27,234s6.18-12.18,16.27-19.24l4.48-3.84a6.41,6.41,0,0,0,2.21-5.18c-.14-2.6.28-5.79,3.4-4.76a43.06,43.06,0,0,0,8.13.42,18.34,18.34,0,0,0,9.8-3.7l.23-.15c1.17-.72,2.51-.59,3,3.08v5.26a4.85,4.85,0,0,0,4,5.84S690,219.8,693,232.92c0,0,12.11,29.26,19.17,71.65C712.21,304.57,719.28,336.86,702.12,338.87Z" fill="#0071f2"/><g opacity="0.2"><path d="M649.77,204.93a17.27,17.27,0,0,1-2.21-.12.51.51,0,0,1-.43-.58.49.49,0,0,1,.57-.42c.07,0,6.63.9,15.67-2.84a.51.51,0,1,1,.38.94A37.23,37.23,0,0,1,649.77,204.93Z"/></g><path d="M672.2,308.16s4.12-4,2.15-23.63c-.21-2.13-.52-4.25-.91-6.35-.86-4.57-2.54-15.1-.73-19a1.66,1.66,0,0,1,3.07.2c.77,2.28,2,7.6,3.13,20a209.58,209.58,0,0,1,3.57,30.34S677.6,308.72,672.2,308.16Z" opacity="0.2"/><g opacity="0.2"><path d="M674.88,253.61h0a.51.51,0,0,1-.46-.55c2-19.9,5.81-22.07,6.24-22.25a.5.5,0,0,1,.66.27.49.49,0,0,1-.25.65c-.1.06-3.73,2.35-5.64,21.43A.52.52,0,0,1,674.88,253.61Z"/></g><path d="M594.15,274.29l1.5-2.22,9.08,14.9a4.62,4.62,0,0,0,8.15-.48,15.37,15.37,0,0,0,.87-2.43,23.65,23.65,0,0,0,.71-4.09c.47-5,2.24-21.71,4.88-26.1a.28.28,0,0,1,.51.18c-.5,5.23-3,30.64-4.17,38.13a11.21,11.21,0,0,0-5.44,9.69Z" opacity="0.2"/><path d="M558.83,315.67s-31.78,7.56-24.21,31.28c0,0,14.12,66.6,33.29,109h19.34s10.94-50.46,8.92-92.84l81,.26s14.65-4.9,11.72-23.77l-49.4-23.89Z" fill="#2f2e41"/><path d="M558.83,315.67s-91.32-.51-92,24c0,0-2.89,27.44,56.65,54.68l27.22,14.4L534.62,347S526.54,324.75,558.83,315.67Z" fill="#2f2e41"/><path d="M558.83,315.67s-91.32-.51-92,24c0,0-2.89,27.44,56.65,54.68l27.22,14.4L534.62,347S526.54,324.75,558.83,315.67Z" opacity="0.2"/><path d="M533.75,339.88s-24.87-3.45-21.08,1.3c0,0,2.34,3.61,23.24,10.74C535.91,351.92,532.88,343.92,533.75,339.88Z" opacity="0.2"/><path d="M525.81,348.2s16.76,30.43,5.72,50.41l19.21,10.16s-13.53-46.83-14.83-56.85Z" opacity="0.2"/><path d="M596.17,363.09s-1-7.33-6.55-17.79a20.2,20.2,0,0,1,8.08,8.89l62.65,3.55a37.22,37.22,0,0,0,16.08-2.52c5.07-2.05,9.67-5.38,7.76-10.5a8.91,8.91,0,0,0-6.46-5.43c-5.13-1.15-15.74-4.21-24.91-11.28a48.48,48.48,0,0,0-25-9.68,113.94,113.94,0,0,0-15-.43l-62.11.71s5.07-2.94,8.09-2.94l80.68,0,49.4,23.89s4.72,16-11.72,23.77Z" opacity="0.2"/><path d="M615.34,443.82c-5-10.09-23-17.94-23-17.94l2.23-18.54,9.35,1.42,13.39,21.94C622.4,440.79,615.34,443.82,615.34,443.82Z" fill="#f9b499"/><polygon points="594.62 407.34 597.37 407.76 597.37 428.37 592.4 425.88 594.62 407.34" fill="#f7a48b"/><path d="M635.18,452.07a6.55,6.55,0,0,1-7.41,4.09c-3.34-.73-8-3.53-12.43-12.34,0,0,7.06-3,2-13.12L604,408.76s-.74-2.28,4.31-2.28a11.08,11.08,0,0,1,10.9,4.88S640.56,438.58,635.18,452.07Z" fill="#0071f2"/><path d="M635.18,452.07a6.55,6.55,0,0,1-7.41,4.09c-3.34-.73-8-3.53-12.43-12.34,0,0,7.06-3,2-13.12L604,408.76s-.74-2.28,4.31-2.28a11.08,11.08,0,0,1,10.9,4.88S640.56,438.58,635.18,452.07Z" opacity="0.2"/><path d="M587.33,469.56a3.74,3.74,0,0,1-1,2.35L575,484.18c-6.9,7.67-13.23,6.59-15.86,5.64a1.19,1.19,0,0,1-.6-1.73l.86-1.4h0l11.21-18.24a4,4,0,0,0,.59-2.11v-10l14.59-.37c-.11,1.72-.1,3.22-.06,4.44a16.48,16.48,0,0,0,.92,4.93,10.42,10.42,0,0,1,.6,2.37A9.87,9.87,0,0,1,587.33,469.56Z" fill="#f9b499"/><path d="M595.16,485.19a236.15,236.15,0,0,1-25,21.88,36.34,36.34,0,0,1-7.76,4.48c-9.76,4.06-15.4,2.6-18.27.94a5.5,5.5,0,0,1-2.59-5.73c1.66-9.28,17.36-19.74,17.86-20.07l-.86,1.4a1.19,1.19,0,0,0,.6,1.73c2.63.95,9,2,15.86-5.64l11.32-12.27a3.74,3.74,0,0,0,1-2.35,9.87,9.87,0,0,0-.09-1.89l.1-.06s.76-3.61,3.78,2.44C591.12,470.05,599.2,481.15,595.16,485.19Z" fill="#0071f2"/><path d="M595.16,485.19a236.15,236.15,0,0,1-25,21.88,36.34,36.34,0,0,1-7.76,4.48c-9.76,4.06-15.4,2.6-18.27.94a5.5,5.5,0,0,1-2.59-5.73c1.66-9.28,17.36-19.74,17.86-20.07l-.86,1.4a1.19,1.19,0,0,0,.6,1.73c2.63.95,9,2,15.86-5.64l11.32-12.27a3.74,3.74,0,0,0,1-2.35,9.87,9.87,0,0,0-.09-1.89l.1-.06s.76-3.61,3.78,2.44C591.12,470.05,599.2,481.15,595.16,485.19Z" opacity="0.2"/><path d="M571.19,456.3v4s6.07,3.71,14.51-.85l.08-3.54Z" fill="#f7a48b"/><polygon points="485.17 249.07 524.09 317.41 614.1 315.67 575.55 249.07 485.17 249.07" fill="#0071f2"/><polygon points="485.17 249.07 524.09 317.41 614.1 315.67 575.55 249.07 485.17 249.07" opacity="0.2"/><path d="M493.24,245l-8.07,4h90.38l38.55,66.6,25.41,0-2.09-1.41s-5.93-2.65-7.95-3.66H615.34L577.64,245Z" fill="#0071f2"/><path d="M493.24,245l-8.07,4h90.38l38.55,66.6,25.41,0-2.09-1.41s-5.93-2.65-7.95-3.66H615.34L577.64,245Z" fill="#fff" opacity="0.4"/><ellipse cx="544.71" cy="283.38" rx="9.08" ry="4.04" opacity="0.2"/><ellipse cx="680.81" cy="168.27" rx="6.05" ry="5.05" transform="translate(262.15 730.89) rotate(-67.23)" fill="#f7a48b"/><path d="M680.81,158.68a29.76,29.76,0,0,1-8,20.3A29.94,29.94,0,0,1,651,188.45a29.76,29.76,0,0,1-15.69-55h0a29.77,29.77,0,0,1,45.46,25.29Z" fill="#f9b499"/><path d="M680.81,158.68a29.76,29.76,0,0,1-8,20.3h0c7.53-21.14.55-31.33.55-31.33-7.06-20.18-38-14.26-38-14.26a29.77,29.77,0,0,1,45.46,25.29Z" fill="#f7a48b"/><path d="M699.72,335.45a20.76,20.76,0,0,1-3,2.44,11.39,11.39,0,0,1-7.77,1.69c-5.28-.71-10.46-.3-27.7-9.82C658,328,654.83,326,651.78,324l-14.36-9.7s-11-3.66-13-8.71c0,0-7.07,3.88-10.6,2.45l-1-1.67-2.61-4.48s-1-6.39,8.13-11.43c0,0,12.11-9.08,15.13-2l6.06,10.09a9.82,9.82,0,0,0,6.05,6.06l33.64,4.54a38.35,38.35,0,0,1,14.21,4.75,26.94,26.94,0,0,1,6.66,5.31,10.94,10.94,0,0,1,1.43,2A11.88,11.88,0,0,1,699.72,335.45Z" fill="#f9b499"/><path d="M626.44,294.47a63.49,63.49,0,0,1-15.73,4.08,63.82,63.82,0,0,1,15.73-4.08Z" fill="#f7a48b"/><path d="M625.43,300.53a50.73,50.73,0,0,1-14.13,3.17,50.89,50.89,0,0,1,14.13-3.17Z" fill="#f7a48b"/><path d="M628.46,289.43a36.66,36.66,0,0,1-12.08,2.25,36.35,36.35,0,0,1,12.08-2.25Z" fill="#f7a48b"/></svg>